<mxfile host="65bd71144e">
    <diagram id="Prg3V6DrBHYqwzvYt2fS" name="PÃ¡gina-1">
        <mxGraphModel dx="362" dy="314" grid="1" gridSize="10" guides="1" tooltips="1" connect="1" arrows="1" fold="1" page="1" pageScale="1" pageWidth="827" pageHeight="1169" math="0" shadow="0">
            <root>
                <mxCell id="0"/>
                <mxCell id="1" parent="0"/>
                <mxCell id="2" value="" style="group" vertex="1" connectable="0" parent="1">
                    <mxGeometry x="50" y="60" width="230" height="230" as="geometry"/>
                </mxCell>
                <mxCell id="3" value="" style="whiteSpace=wrap;html=1;aspect=fixed;" vertex="1" parent="2">
                    <mxGeometry x="-40" width="230" height="230" as="geometry"/>
                </mxCell>
                <mxCell id="4" value="Pedidos" style="text;strokeColor=none;fillColor=none;html=1;fontSize=24;fontStyle=1;verticalAlign=middle;align=center;" vertex="1" parent="2">
                    <mxGeometry x="35" y="-0.0014285714285691142" width="60" height="32.85714285714286" as="geometry"/>
                </mxCell>
                <mxCell id="5" value="" style="rounded=0;whiteSpace=wrap;html=1;" vertex="1" parent="2">
                    <mxGeometry x="-40" y="40" width="230" height="110" as="geometry"/>
                </mxCell>
                <mxCell id="6" value="&lt;span style=&quot;font-size: 10px;&quot;&gt;- cliente: String&lt;br&gt;- mesa: String&lt;br&gt;- descricao: String&lt;br&gt;&lt;/span&gt;" style="text;html=1;strokeColor=none;fillColor=none;align=center;verticalAlign=middle;whiteSpace=wrap;rounded=0;fontSize=17;" vertex="1" parent="2">
                    <mxGeometry x="-40" y="80" width="230" height="30" as="geometry"/>
                </mxCell>
                <mxCell id="7" value="+ gerarId(): int" style="text;html=1;strokeColor=none;fillColor=none;align=center;verticalAlign=middle;whiteSpace=wrap;rounded=0;fontSize=10;" vertex="1" parent="2">
                    <mxGeometry x="12.5" y="180" width="125" height="30" as="geometry"/>
                </mxCell>
                <mxCell id="8" value="0...*" style="text;html=1;strokeColor=none;fillColor=none;align=center;verticalAlign=middle;whiteSpace=wrap;rounded=0;fontSize=10;" vertex="1" parent="2">
                    <mxGeometry x="170" y="80" width="60" height="30" as="geometry"/>
                </mxCell>
                <mxCell id="9" value="" style="whiteSpace=wrap;html=1;aspect=fixed;" vertex="1" parent="1">
                    <mxGeometry x="340" y="60" width="230" height="230" as="geometry"/>
                </mxCell>
                <mxCell id="10" value="PedidosServico" style="text;strokeColor=none;fillColor=none;html=1;fontSize=24;fontStyle=1;verticalAlign=middle;align=center;" vertex="1" parent="1">
                    <mxGeometry x="425" y="69.99857142857144" width="60" height="32.85714285714286" as="geometry"/>
                </mxCell>
                <mxCell id="11" value="" style="rounded=0;whiteSpace=wrap;html=1;" vertex="1" parent="1">
                    <mxGeometry x="340" y="110" width="230" height="110" as="geometry"/>
                </mxCell>
                <mxCell id="12" value="&lt;span style=&quot;font-size: 10px;&quot;&gt;- pedidos: pedidos[]&lt;/span&gt;" style="text;html=1;strokeColor=none;fillColor=none;align=center;verticalAlign=middle;whiteSpace=wrap;rounded=0;fontSize=17;" vertex="1" parent="1">
                    <mxGeometry x="340" y="140" width="230" height="30" as="geometry"/>
                </mxCell>
                <mxCell id="13" value="+ adicionarPedido(): pedidos[]&lt;br&gt;+ listarPedidos(): pedidos[]&amp;nbsp;&lt;br&gt;+ listarPedidosPorId(): int&lt;br&gt;+ deletarPedido(): void" style="text;html=1;strokeColor=none;fillColor=none;align=center;verticalAlign=middle;whiteSpace=wrap;rounded=0;fontSize=10;rotation=0;" vertex="1" parent="1">
                    <mxGeometry x="387.5" y="240" width="135" height="30" as="geometry"/>
                </mxCell>
                <mxCell id="14" style="edgeStyle=none;html=1;fontSize=10;endArrow=diamondThin;endFill=0;endSize=10;" edge="1" parent="1" source="11">
                    <mxGeometry relative="1" as="geometry">
                        <mxPoint x="240" y="165" as="targetPoint"/>
                    </mxGeometry>
                </mxCell>
                <mxCell id="15" value="1...*" style="text;html=1;strokeColor=none;fillColor=none;align=center;verticalAlign=middle;whiteSpace=wrap;rounded=0;fontSize=10;" vertex="1" parent="1">
                    <mxGeometry x="300" y="160" width="60" height="30" as="geometry"/>
                </mxCell>
            </root>
        </mxGraphModel>
    </diagram>
</mxfile>